<svg xmlns="http://www.w3.org/2000/svg" xmlns:xlink="http://www.w3.org/1999/xlink" version="1.1" id="Layer_1" x="0px" y="0px" viewBox="0 0 505 505" style="enable-background:new 0 0 505 505;" xml:space="preserve">
<circle style="fill: #4C8DFF;" cx="252.5" cy="252.5" r="252.5"></circle>
<path style="fill: rgba(255,255,255,0.4);" d="M205.2,205.3h200.6c6.6,0,12,5.4,12,12v121.6c0,6.6-5.4,12-12,12h-9.6v26.6L348.8,351H205.2  c-6.6,0-12-5.4-12-12V217.3C193.1,210.7,198.5,205.3,205.2,205.3z"></path>
<path style="fill: #D4E7FF;" d="M344.2,127.5H101.7c-8,0-14.5,6.5-14.5,14.5v146.9c0,8,6.5,14.5,14.5,14.5h11.6v32.1l57.3-32.1h173.5  c8,0,14.5-6.5,14.5-14.5V142C358.7,134,352.2,127.5,344.2,127.5z"></path>
<g>
	<rect x="127" y="166" style="fill: #4C8DFF;" width="191.7" height="17.2"></rect>
	<rect x="127" y="206.9" style="fill: #4C8DFF;" width="191.7" height="17.2"></rect>
	<rect x="127" y="247.8" style="fill: #4C8DFF;" width="80.3" height="17.2"></rect>
</g>
</svg>