<?xml version="1.0" encoding="utf-8"?>
<!-- Generator: Adobe Illustrator 16.0.0, SVG Export Plug-In . SVG Version: 6.00 Build 0)  -->
<!DOCTYPE svg PUBLIC "-//W3C//DTD SVG 1.1//EN" "http://www.w3.org/Graphics/SVG/1.1/DTD/svg11.dtd">
<svg version="1.1" id="Layer_1" xmlns="http://www.w3.org/2000/svg" xmlns:xlink="http://www.w3.org/1999/xlink" x="0px" y="0px"
	 width="500px" height="300px" viewBox="0 0 500 300" enable-background="new 0 0 500 300" xml:space="preserve">
<g>
	<defs>
		<rect id="SVGID_1_" x="0.042" y="-198.788" width="500" height="500"/>
	</defs>
	<clipPath id="SVGID_2_">
		<use xlink:href="#SVGID_1_"  overflow="visible"/>
	</clipPath>
	<g clip-path="url(#SVGID_2_)">
		<g>
			<path fill-rule="evenodd" clip-rule="evenodd" fill="#DDF2FC" d="M250.043,298.294c34.814,0,63.21-20.65,63.21-45.971
				s-28.396-45.972-63.21-45.972c-34.816,0-63.211,20.651-63.211,45.972S215.227,298.294,250.043,298.294z"/>
			<path fill-rule="evenodd" clip-rule="evenodd" fill="#DDF2FC" d="M-7.316,195.249c42.689,0,77.506-25.321,77.506-56.368
				c0-31.046-34.817-56.367-77.506-56.367s-77.505,25.321-77.505,56.367C-84.821,169.928-50.005,195.249-7.316,195.249z"/>
			<path fill-rule="evenodd" clip-rule="evenodd" fill="#DDF2FC" d="M74.218,212.549c26.648,0,48.383-15.808,48.383-35.188
				c0-19.381-21.734-35.188-48.383-35.188s-48.382,15.807-48.382,35.188C25.836,196.741,47.57,212.549,74.218,212.549z"/>
			<path fill-rule="evenodd" clip-rule="evenodd" fill="#DDF2FC" d="M136.054,285.609c45.409,0,82.445-26.935,82.445-59.96
				s-37.036-59.96-82.445-59.96s-82.445,26.935-82.445,59.96S90.645,285.609,136.054,285.609z"/>
			<path fill-rule="evenodd" clip-rule="evenodd" fill="#DDF2FC" d="M498.269,230.21c42.688,0,77.506-25.321,77.506-56.368
				c0-31.046-34.817-56.367-77.506-56.367s-77.506,25.321-77.506,56.367C420.763,204.889,455.58,230.21,498.269,230.21z"/>
			<path fill-rule="evenodd" clip-rule="evenodd" fill="#DDF2FC" d="M432.527,236.847c26.648,0,48.383-15.807,48.383-35.188
				s-21.734-35.188-48.383-35.188c-26.647,0-48.382,15.807-48.382,35.188S405.88,236.847,432.527,236.847z"/>
			<path fill-rule="evenodd" clip-rule="evenodd" fill="#DDF2FC" d="M357.361,308.387c45.409,0,82.445-26.936,82.445-59.96
				c0-33.025-37.036-59.961-82.445-59.961s-82.445,26.936-82.445,59.961C274.916,281.451,311.952,308.387,357.361,308.387z"/>
		</g>
		<g>
			<path fill-rule="evenodd" clip-rule="evenodd" fill="#FFFFFF" d="M4.305,246.585c42.689,0,77.506-25.321,77.506-56.367
				c0-31.047-34.817-56.368-77.506-56.368s-77.506,25.321-77.506,56.368C-73.201,221.264-38.384,246.585,4.305,246.585z"/>
			<path fill-rule="evenodd" clip-rule="evenodd" fill="#FFFFFF" d="M78.718,274.057c26.648,0,48.383-15.808,48.383-35.188
				c0-19.381-21.735-35.188-48.383-35.188c-26.648,0-48.382,15.807-48.382,35.188C30.336,258.249,52.07,274.057,78.718,274.057z"/>
			<path fill-rule="evenodd" clip-rule="evenodd" fill="#FFFFFF" d="M157.77,325.814c42.689,0,77.506-25.321,77.506-56.368
				c0-31.046-34.817-56.367-77.506-56.367S80.264,238.4,80.264,269.446C80.264,300.493,115.081,325.814,157.77,325.814z"/>
			<path fill-rule="evenodd" clip-rule="evenodd" fill="#FFFFFF" d="M250.043,308.939c26.647,0,48.383-15.807,48.383-35.188
				c0-19.38-21.735-35.187-48.383-35.187c-26.648,0-48.383,15.807-48.383,35.187C201.66,293.133,223.395,308.939,250.043,308.939z"
				/>
			<path fill-rule="evenodd" clip-rule="evenodd" fill="#FFFFFF" d="M495.78,260.731c42.688,0,77.506-25.321,77.506-56.368
				c0-31.046-34.817-56.367-77.506-56.367c-42.689,0-77.506,25.321-77.506,56.367C418.274,235.41,453.091,260.731,495.78,260.731z"
				/>
			<path fill-rule="evenodd" clip-rule="evenodd" fill="#FFFFFF" d="M421.366,274.057c26.648,0,48.383-15.808,48.383-35.188
				c0-19.381-21.734-35.188-48.383-35.188c-26.647,0-48.382,15.807-48.382,35.188C372.984,258.249,394.719,274.057,421.366,274.057z
				"/>
			<path fill-rule="evenodd" clip-rule="evenodd" fill="#FFFFFF" d="M342.315,325.814c42.689,0,77.506-25.321,77.506-56.368
				c0-31.046-34.816-56.367-77.506-56.367c-42.688,0-77.506,25.321-77.506,56.367C264.81,300.493,299.627,325.814,342.315,325.814z"
				/>
			<path fill-rule="evenodd" clip-rule="evenodd" fill="#FFFFFF" d="M43.399,395.359c62.957,0,114.305-37.344,114.305-83.131
				s-51.348-83.131-114.305-83.131s-114.305,37.344-114.305,83.131S-19.558,395.359,43.399,395.359z"/>
			<path fill-rule="evenodd" clip-rule="evenodd" fill="#FFFFFF" d="M250.043,419.328c60.476,0,109.8-35.872,109.8-79.854
				s-49.324-79.854-109.8-79.854c-60.476,0-109.8,35.872-109.8,79.854S189.567,419.328,250.043,419.328z"/>
			<path fill-rule="evenodd" clip-rule="evenodd" fill="#FFFFFF" d="M456.686,383.628c54.072,0,98.174-32.073,98.174-71.399
				c0-39.325-44.102-71.399-98.174-71.399s-98.174,32.074-98.174,71.399C358.512,351.555,402.613,383.628,456.686,383.628z"/>
		</g>
	</g>
</g>
</svg>
