<svg version="1.1" id="Layer_1" xmlns="http://www.w3.org/2000/svg" xmlns:xlink="http://www.w3.org/1999/xlink" x="0px" y="0px"
	  viewBox="0 0 1000 1000" enable-background="new 0 0 1000 1000" xml:space="preserve">
<circle fill="#4C8DFF" cx="501" cy="501" r="500"/>
<g>
	<path fill="#D4E7FF" d="M784.252,790.585L610.119,488.966c-3.068-5.293-10.027-7.152-15.308-4.073l-97.311,56.153
		c-2.58,1.413-4.424,3.996-5.222,6.901c-0.799,2.905-0.376,5.793,1.151,8.543l174.019,301.5c5.01,8.516,18.205,6.812,20.641-2.671
		l17.693-65.833l65.831,17.691C781.164,809.61,789.149,799.107,784.252,790.585z"/>
	<path fill="#D4E7FF" d="M517.595,547.949c-0.798-2.907-2.591-5.49-5.273-6.903l-97.259-56.151
		c-5.411-3.075-12.228-1.222-15.309,4.073L225.622,790.587c-4.899,8.523,3.172,19.023,12.637,16.597l65.83-17.691l17.693,65.833
		c2.516,9.477,15.633,11.187,20.527,2.671L516.534,556.49C517.938,553.742,518.394,550.853,517.595,547.949z"/>
</g>
<g>
	<path fill="rgba(255,255,255,0.5)" d="M664.996,583.943l-121.525,59.195l34.889,60.191h37.932c17.224,0,33.173-7.697,43.975-21.085l28.43-35.862l9.639-4.54
		L664.996,583.943z"/>
	<path fill="rgba(255,255,255,0.5)" d="M311.47,641.845l9.691,4.54l28.457,35.86c10.793,13.386,26.74,21.085,43.921,21.085h38.071l33.473-57.772L354.362,567.65
		L311.47,641.845z"/>
</g>
<path fill="#D4E7FF" d="M753.73,415.942l12.398-54.555c0.782-3.398-0.054-6.894-2.195-9.517l-34.855-43.763l-12.5-54.696
	c-0.682-3.262-2.974-6.067-6.161-7.583l-50.438-24.337l-34.855-43.764c-2.145-2.643-5.432-4.236-8.834-4.236h-56.054l-50.44-24.337
	c-3.091-1.45-6.623-1.45-9.714,0l-50.44,24.34h-56.1c-3.383,0-6.643,1.591-8.787,4.236l-34.855,43.766l-50.504,24.337
	c-3.123,1.516-5.292,4.321-6.059,7.583L280.8,308.112l-34.857,43.763c-2.142,2.621-2.978,6.116-2.195,9.517l12.441,54.555
	l-12.441,54.696c-0.783,3.263,0.053,6.753,2.195,9.514L280.8,523.92l12.536,54.558c0.766,3.297,2.936,6.105,6.059,7.583
	l50.504,24.479l34.855,43.626c2.144,2.803,5.404,4.234,8.787,4.234h56.1l50.44,24.476c1.54,0.756,3.091,0.999,4.857,0.999
	c1.762,0,3.264-0.243,4.858-0.999l50.44-24.476h56.054c3.4,0,6.689-1.432,8.834-4.234l34.855-43.626l50.438-24.479
	c3.188-1.478,5.479-4.286,6.159-7.583l12.502-54.558l34.855-43.764c2.142-2.759,2.978-6.251,2.195-9.514L753.73,415.942z"/>
<path fill="rgba(255,255,255,0.5)" d="M504.937,191.256c-123.88,0-224.687,100.807-224.687,224.686c0,123.88,100.807,224.806,224.687,224.806
	c123.978,0,224.688-100.926,224.688-224.806C729.624,292.063,628.914,191.256,504.937,191.256z"/>
<path fill="rgba(255,255,255,0.5)" d="M504.937,213.725c-111.457,0-202.218,90.769-202.218,202.217c0,111.589,90.761,202.337,202.218,202.337
	c111.449,0,202.219-90.748,202.219-202.337C707.155,304.493,616.386,213.725,504.937,213.725z"/>
<path fill="#82AEF7" d="M504.937,236.193c-99.159,0-179.749,80.724-179.749,179.749c0,99.189,80.59,179.869,179.749,179.869
	c99.161,0,179.75-80.68,179.75-179.869C684.687,316.917,604.098,236.193,504.937,236.193z"/>
<g>
	<path fill="#D4E7FF" d="M246.546,528.404c-15.962,0-33.703-27.781-33.703-67.524c0-6.159-5.076-11.234-11.234-11.234
		s-11.234,5.076-11.234,11.234c0,39.744-17.742,67.524-33.703,67.524c-6.159,0-11.234,4.982-11.234,11.234
		c0,6.18,5.075,11.234,11.234,11.234c15.961,0,33.703,27.543,33.703,67.406c0,6.18,5.076,11.234,11.234,11.234
		s11.234-5.055,11.234-11.234c0-39.863,17.741-67.406,33.703-67.406c6.159,0,11.234-5.055,11.234-11.234
		C257.781,533.387,252.705,528.404,246.546,528.404z"/>
	<path fill="#D4E7FF" d="M853.203,685.686c-12.224,0-22.469-15.447-22.469-33.703c0-6.249-5.076-11.234-11.234-11.234
		c-6.159,0-11.235,4.985-11.235,11.234c0,18.256-10.245,33.703-22.469,33.703c-6.158,0-11.234,4.985-11.234,11.234
		c0,6.18,5.076,11.234,11.234,11.234c12.224,0,22.469,15.445,22.469,33.703c0,6.18,5.076,11.236,11.235,11.236
		c6.158,0,11.234-5.057,11.234-11.236c0-18.258,10.245-33.703,22.469-33.703c6.158,0,11.234-5.055,11.234-11.234
		C864.438,690.671,859.361,685.686,853.203,685.686z"/>
	<path fill="#D4E7FF" d="M797.03,202.49c0-6.159-5.075-11.234-11.234-11.234c-12.223,0-22.469-15.428-22.469-33.703
		c0-6.159-5.075-11.234-11.234-11.234c-6.158,0-11.234,5.075-11.234,11.234c0,18.275-10.245,33.703-22.469,33.703
		c-6.157,0-11.234,5.075-11.234,11.234c0,6.292,5.077,11.234,11.234,11.234c12.224,0,22.469,15.434,22.469,33.703
		c0,6.292,5.076,11.234,11.234,11.234c6.159,0,11.234-4.942,11.234-11.234c0-18.27,10.246-33.703,22.469-33.703
		C791.955,213.725,797.03,208.782,797.03,202.49z"/>
</g>
<g>
	<path fill="#ECEEF1" d="M586.896,307.816c-2.142-2.609-5.257-4.217-8.63-4.217h-62.095h-22.469h-61.977
		c-3.489,0-6.645,1.608-8.755,4.217l-41.611,51.954v56.171l123.577,134.931l123.578-134.931v-56.171L586.896,307.816z"/>
	<path fill="#FFFFFF" d="M516.171,303.599l44.938,56.171h67.406l-41.619-51.954c-2.142-2.609-5.257-4.217-8.63-4.217H516.171z"/>
</g>
<rect x="561.108" y="359.765" fill="#F9F9F9" width="67.406" height="56.172"/>
<g>
	<polygon fill="#F5F5F5" points="628.515,415.942 504.937,550.873 561.108,415.942 	"/>
	<path fill="#F3F3F3" d="M493.702,303.599l-44.938,56.171h-67.405l41.611-51.954c2.11-2.609,5.266-4.217,8.755-4.217H493.702z"/>
</g>
<rect x="381.359" y="359.765" fill="#F1F1F1" width="67.405" height="56.172"/>
<polygon fill="#EEEEEE" points="381.359,415.942 504.937,550.873 448.765,415.942 "/>
<polygon fill="#F5F5F5" points="561.108,359.771 516.171,303.599 493.702,303.599 448.765,359.771 "/>
<rect x="448.765" y="359.765" fill="#F4F4F4" width="112.344" height="56.172"/>
<polygon fill="#F1F1F1" points="561.108,415.942 504.937,550.873 448.765,415.942 "/>
</svg>