<?xml version="1.0" encoding="iso-8859-1"?>
<!-- Generator: Adobe Illustrator 19.0.0, SVG Export Plug-In . SVG Version: 6.00 Build 0)  -->
<svg version="1.1" id="Layer_1" xmlns="http://www.w3.org/2000/svg" xmlns:xlink="http://www.w3.org/1999/xlink" x="0px" y="0px"
	 viewBox="0 0 512.209 512.209" style="enable-background:new 0 0 512.209 512.209;" xml:space="preserve">
<path style="fill:#EFEADD;" d="M418.532,101.727L144.877,1.975c-16.772-6.179-35.31,2.648-41.49,19.421L73.374,106.14h128l0,0h35.31
	l63.559,88.276h135.062l11.476-31.779C455.608,137.92,443.25,110.554,418.532,101.727"/>
<g>
	<path style="fill:#D4D0BA;" d="M407.056,152.927c-0.883,0-1.766,0-2.648-0.883L137.815,55.823
		c-4.414-1.766-7.062-7.062-5.297-11.476s7.062-7.062,11.476-5.297l265.71,96.221c4.414,1.766,7.062,7.062,5.297,11.476
		C414.118,151.161,410.587,152.927,407.056,152.927"/>
	<path style="fill:#D4D0BA;" d="M335.553,174.113c-0.883,0-1.766,0-2.648-0.883l-77.683-28.248
		c-4.414-1.766-7.062-7.062-5.297-11.476c1.766-4.414,7.062-7.062,11.476-5.297l77.683,28.248c4.414,1.766,7.062,7.062,5.297,11.476
		C342.615,171.465,339.084,174.113,335.553,174.113"/>
</g>
<path style="fill:#FBC176;" d="M0.105,220.899v264.828c0,15.007,11.476,26.483,26.483,26.483h459.034
	c15.007,0,26.483-11.476,26.483-26.483V220.899c0-15.007-11.476-26.483-26.483-26.483H26.587
	C11.581,194.416,0.105,205.892,0.105,220.899"/>
<path style="fill:#C39A6E;" d="M300.243,194.416H35.415v-61.793c0-15.007,11.476-26.483,26.483-26.483h174.786L300.243,194.416z"/>
<g>
	<path style="fill:#FFFFFF;" d="M159.001,256.209H53.07c-5.297,0-8.828-3.531-8.828-8.828s3.531-8.828,8.828-8.828h105.931
		c5.297,0,8.828,3.531,8.828,8.828S164.298,256.209,159.001,256.209"/>
	<path style="fill:#FFFFFF;" d="M159.001,291.52H53.07c-5.297,0-8.828-3.531-8.828-8.828c0-5.297,3.531-8.828,8.828-8.828h105.931
		c5.297,0,8.828,3.531,8.828,8.828C167.829,287.989,164.298,291.52,159.001,291.52"/>
</g>
<g>
</g>
<g>
</g>
<g>
</g>
<g>
</g>
<g>
</g>
<g>
</g>
<g>
</g>
<g>
</g>
<g>
</g>
<g>
</g>
<g>
</g>
<g>
</g>
<g>
</g>
<g>
</g>
<g>
</g>
</svg>
