<svg xmlns="http://www.w3.org/2000/svg" xmlns:xlink="http://www.w3.org/1999/xlink" version="1.1" id="Layer_1" x="0px" y="0px" viewBox="0 0 508 508" style="enable-background:new 0 0 508 508;" xml:space="preserve">
<circle style="fill: #4C8DFF;" cx="254" cy="254" r="254"></circle>
<path style="fill: #D4E7FF;" d="M254,75.6c-17.2,22.4-62,63.2-152.8,49.6v67.2c0,184.4,152.8,240.4,152.8,240.4s152.8-56,152.8-240.4  v-67.2C316,138.8,271.2,98,254,75.6z"></path>
<path style="fill: rgba(255,255,255,0.4);" d="M254,259.2v136l0,0c12.4-6.4,32.4-18.4,52.8-38c19.2-18.4,34.4-40,45.2-63.6  c4.8-10.8,9.2-22.4,12.4-34L254,259.2z"></path>
<path style="fill: #4C8DFF;" d="M364.4,259.2c5.6-20.8,8.4-43.2,8.4-67.2v-30.4c-0.4,0-0.8,0-1.2,0c-55.2,0-93.2-18.4-117.6-38.4v136  H364.4z"></path>
<path style="fill: rgba(255,255,255,0.4);" d="M254,123.6L254,123.6c-24.4,19.6-62.4,38.4-117.6,38.4c0,0-0.8,0-1.2,0v30.4c0,23.6,2.8,46,8.4,67.2  H254V123.6z"></path>
<path style="fill: #4C8DFF;" d="M143.6,259.6c3.2,11.2,6.8,22,11.6,32.4c10.8,23.6,25.6,44.8,44,63.6c20.8,20.8,42,33.6,54.8,40v-136  H143.6z"></path>
</svg>