<svg xmlns="http://www.w3.org/2000/svg" xmlns:xlink="http://www.w3.org/1999/xlink" version="1.1" id="Capa_1" x="0px" y="0px" viewBox="0 0 512 512" style="enable-background:new 0 0 512 512;" xml:space="preserve">
<path style="fill: #3980FC;" d="M492.53,252.539c-0.479-11.4-6.469-21.865-15.696-28.578l-38.863-28.278l0,0c0,0.007,0,0,0,0l0,0l0,0  l0,0H74.027l-38.863,28.278c-15.939,11.598-15.727,28.693-15.696,28.59c-0.067,1.629-0.023-13.433-0.036,235.648  c0,1.189,0.022,2.322,0.062,3.404C20.303,502.958,29.839,512,41.391,512h429.217c11.552,0,21.088-9.042,21.896-20.398  C492.632,488.223,492.533,251.122,492.53,252.539z"/>
<path style="fill: #2373FE;" d="M78.231,195.682h-4.204L35.164,223.96c-15.939,11.598-15.727,28.693-15.696,28.59  c-0.067,1.629-0.023-13.433-0.036,235.648c0,1.189,0.022,2.322,0.062,3.404C20.303,502.958,29.839,512,41.391,512h10.731  c-0.933-2.183-1.544-4.533-1.72-7.004c-0.041-1.082-0.062-2.214-0.062-3.404c0.013-249.081-0.032-234.019,0.036-235.648  c-0.03,0.103-0.242-16.992,15.696-28.59l12.16-8.848L78.231,195.682L78.231,195.682z"/>
<path style="fill: #4C8DFF;" d="M437.972,292.496C253.521,391.96,265.136,387.156,256,387.156c-9.182,0,8.42,8.008-236.567-124.1  v225.143c0,1.189,0.021,2.322,0.062,3.404C20.303,502.958,29.839,512,41.391,512h429.217c11.552,0,21.088-9.042,21.896-20.398  c0.116-3.074,0.04,11.208,0.062-228.546L437.972,292.496L437.972,292.496z"/>
<path style="fill: #2373FE;" d="M50.339,501.592c0.008-145.019-0.004-200.495-0.002-221.863  c-9.811-5.295-20.097-10.845-30.905-16.673v55.35c0.002,34.607,0.004,87.564,0,168.635v1.158c0,0.595,0.006,1.175,0.016,1.742  c0.011,0.567,0.026,1.121,0.047,1.661c0.051,0.71,0.135,1.41,0.252,2.1C21.502,504.053,30.561,512,41.391,512h10.731  c-0.933-2.183-1.544-4.533-1.72-7.004C50.361,503.914,50.339,502.781,50.339,501.592z"/>
<path style="fill: #5C96FC;" d="M19.432,263.056v225.143c0,1.189,0.021,2.322,0.062,3.404c0.449,6.303,3.592,11.885,8.271,15.612  l160.022-153.373C178.951,349.076,28.167,267.767,19.432,263.056z"/>
<path style="fill: #4C8DFF;" d="M19.764,493.782c0.104,0.598,0.236,1.187,0.388,1.768c0.029,0.113,0.059,0.227,0.09,0.34  c0.155,0.557,0.332,1.104,0.529,1.643c0.047,0.127,0.096,0.253,0.145,0.379c0.203,0.524,0.422,1.039,0.663,1.543  c0.06,0.126,0.126,0.249,0.189,0.374c0.225,0.448,0.464,0.888,0.718,1.319c0.091,0.154,0.185,0.307,0.28,0.459  c0.24,0.385,0.494,0.761,0.758,1.13c0.109,0.153,0.215,0.309,0.329,0.459c0.291,0.387,0.599,0.759,0.914,1.126  c0.148,0.172,0.298,0.344,0.451,0.512c0.312,0.341,0.635,0.672,0.968,0.993c0.175,0.168,0.354,0.333,0.534,0.495  c0.335,0.303,0.677,0.598,1.03,0.88c0.006,0.005,0.011,0.009,0.016,0.014l22.575-21.637c0.006-133.149-0.005-185.3-0.003-205.856  c-16.622-8.964-28.621-15.434-30.905-16.665v57.027c0.002,34.296,0.004,86.163,0,164.642v3.474c0,1.189,0.021,2.322,0.062,3.404  c0.047,0.656,0.13,1.302,0.233,1.942C19.74,493.623,19.75,493.703,19.764,493.782z"/>
<path style="fill: #5C96FC;" d="M492.566,263.056c-0.023,239.754,0.055,225.456-0.062,228.546  c-0.449,6.303-3.592,11.885-8.271,15.612L324.211,353.841C333.047,349.076,483.831,267.767,492.566,263.056z"/>
<path style="fill: #D4E7FF;" d="M411.938,38.866c-4.015,0-305.772,0-311.877,0c-14.378,0-26.033,11.655-26.033,26.033  c0,13.458,0,111.207,0,124.507v99.068c0,0.007,0,0.014,0,0.021c0,0.184,0,4.136,0,4.001c179.027,95.306,170.226,94.66,181.972,94.66  c11.923,0,4.29-0.07,181.972-94.66c0-41.523,0-114.978,0-147.39V64.899C437.971,50.521,426.316,38.866,411.938,38.866z"/>
<path style="fill: #C0DBFC;" d="M104.935,189.406c0-13.3,0-111.049,0-124.507c0-14.378,11.656-26.033,26.033-26.033  c-18.136,0-29.758,0-30.907,0c-14.378,0-26.033,11.655-26.033,26.033c0,13.458,0,111.207,0,124.507v99.068c0,0.007,0,0.014,0,0.021  c0,0.184,0,4.136,0,4.001c10.996,5.854,21.28,11.344,30.907,16.496V189.406z"/>
<path style="fill: #fff;" d="M358.165,204.747h-173.94c-4.267,0-7.727-3.459-7.727-7.727s3.459-7.727,7.727-7.727h173.94  c4.267,0,7.727,3.459,7.727,7.727S362.433,204.747,358.165,204.747z"/>
<path style="fill: #4C8DFF;" d="M218.438,131.179h-68.426c-4.267,0-7.727-3.459-7.727-7.727s3.459-7.727,7.727-7.727h68.426  c4.267,0,7.727,3.459,7.727,7.727S222.706,131.179,218.438,131.179z"/>
<g>
	<path style="fill: #fff;" d="M358.165,236.728h-173.94c-4.267,0-7.727-3.459-7.727-7.727s3.459-7.727,7.727-7.727h173.94   c4.267,0,7.727,3.459,7.727,7.727S362.433,236.728,358.165,236.728z"/>
	<path style="fill: #fff;" d="M358.165,300.689h-173.94c-4.267,0-7.727-3.459-7.727-7.727s3.459-7.727,7.727-7.727h173.94   c4.267,0,7.727,3.459,7.727,7.727S362.433,300.689,358.165,300.689z"/>
	<path style="fill: #fff;" d="M358.165,268.708h-173.94c-4.267,0-7.727-3.459-7.727-7.727c0-4.268,3.459-7.727,7.727-7.727h173.94   c4.267,0,7.727,3.459,7.727,7.727C365.892,265.249,362.433,268.708,358.165,268.708z"/>
</g>
<g>
	<path style="fill: #5C96FC;" d="M153.83,204.752c-0.505,0-1.01-0.051-1.504-0.154c-0.495-0.104-0.979-0.248-1.453-0.444   c-0.463-0.195-0.907-0.433-1.329-0.71c-0.422-0.279-0.824-0.608-1.174-0.959c-1.443-1.442-2.267-3.43-2.267-5.46   c0-2.039,0.824-4.028,2.267-5.47c0.35-0.35,0.752-0.68,1.174-0.959c0.423-0.278,0.866-0.515,1.329-0.71   c0.474-0.196,0.958-0.34,1.453-0.443c0.999-0.196,2.019-0.196,3.019,0c0.495,0.103,0.978,0.247,1.442,0.443   c0.463,0.195,0.917,0.433,1.339,0.71c0.423,0.279,0.814,0.609,1.175,0.959c0.35,0.36,0.68,0.752,0.958,1.174   c0.278,0.423,0.515,0.865,0.711,1.339c0.196,0.464,0.339,0.948,0.443,1.443c0.093,0.494,0.144,1.009,0.144,1.514   c0,2.03-0.824,4.018-2.256,5.46c-0.361,0.351-0.752,0.68-1.175,0.959c-0.423,0.278-0.876,0.515-1.339,0.71   c-0.464,0.196-0.948,0.34-1.442,0.444C154.84,204.701,154.335,204.752,153.83,204.752z"/>
	<path style="fill: #5C96FC;" d="M153.83,268.71c-0.505,0-1.01-0.051-1.504-0.154c-0.495-0.104-0.979-0.247-1.453-0.444   c-0.463-0.185-0.907-0.433-1.329-0.71c-0.422-0.279-0.824-0.598-1.174-0.959c-0.361-0.36-0.68-0.752-0.958-1.174   s-0.526-0.865-0.711-1.329c-0.196-0.474-0.34-0.958-0.443-1.453c-0.103-0.494-0.154-0.999-0.154-1.504   c0-2.039,0.824-4.028,2.267-5.47c1.792-1.793,4.461-2.617,6.975-2.112c0.495,0.103,0.978,0.246,1.442,0.443   c0.463,0.195,0.917,0.433,1.339,0.71c0.423,0.279,0.814,0.609,1.175,0.959c1.432,1.442,2.256,3.431,2.256,5.47   c0,0.505-0.051,1.01-0.144,1.504c-0.103,0.495-0.247,0.979-0.443,1.453c-0.196,0.464-0.433,0.906-0.711,1.329   s-0.608,0.814-0.958,1.174c-0.361,0.361-0.752,0.68-1.175,0.959c-0.423,0.278-0.876,0.525-1.339,0.71   c-0.464,0.196-0.948,0.34-1.442,0.444C154.85,268.659,154.335,268.71,153.83,268.71z"/>
</g>
<path style="fill: #5C96FC;" d="M489.579,65.496l-6.208-6.052c-4.124-4.019-6.004-9.807-5.031-15.482l1.439-8.389  c0.94-5.477-2.807-10.66-8.328-11.462c-4.212-1.242-16.141,0.398-21.668-10.804l-3.844-7.788c-2.464-4.993-8.546-6.969-13.474-4.378  c-4.138,1.47-12.801,9.798-23.858,3.984l-7.579-3.984c-4.86-2.554-10.98-0.675-13.474,4.378  c-2.511,3.668-4.635,15.559-17.014,17.357l-8.498,1.235c-5.511,0.801-9.269,5.975-8.327,11.462  c0.117,4.351,5.349,15.156-3.592,23.871l-6.208,6.052c-3.987,3.885-3.986,10.282,0,14.167l6.208,6.051  c8.992,8.765,3.71,19.455,3.592,23.871c-0.942,5.488,2.818,10.661,8.327,11.462c4.204,1.24,16.14-0.398,21.668,10.804l3.844,7.789  c1.756,3.559,5.302,5.52,8.884,5.52c3.823,0,5.585-1.939,12.169-5.127c5.096-2.68,11.182-2.68,16.279,0l7.579,3.984  c4.919,2.586,11.005,0.624,13.474-4.378l3.844-7.789c2.548-5.164,7.472-8.741,13.17-9.569l8.498-1.235  c5.51-0.801,9.269-5.974,8.328-11.462l-1.439-8.389c-0.973-5.675,0.907-11.463,5.03-15.482l6.208-6.052  C493.566,75.777,493.566,69.381,489.579,65.496z"/>
<path style="fill:#F9F6ED;" d="M400.745,96.876l-15.137-17.502c-2.791-3.228-2.438-8.107,0.79-10.899s8.108-2.437,10.899,0.79  l9.474,10.955l29.586-32.117c2.891-3.139,7.779-3.339,10.918-0.449c3.139,2.892,3.339,7.78,0.448,10.918l-35.45,38.483  C409.124,100.475,403.741,100.34,400.745,96.876z"/>
<path style="fill: #4C8DFF;" d="M382.368,100.923C362.934,67.262,373.53,24.506,405.84,3.67l-4.811-2.529  c-4.86-2.554-10.98-0.675-13.474,4.378c-2.511,3.668-4.635,15.559-17.014,17.357l-8.498,1.235  c-5.511,0.801-9.269,5.975-8.327,11.462c0.117,4.351,5.349,15.156-3.592,23.871l-6.208,6.052c-3.987,3.885-3.986,10.282,0,14.167  l6.208,6.051c8.992,8.765,3.71,19.455,3.592,23.871c-0.941,5.488,2.818,10.661,8.327,11.462c4.204,1.24,16.14-0.398,21.668,10.804  l3.844,7.789c1.756,3.559,5.303,5.52,8.885,5.52c3.823,0,5.585-1.939,12.169-5.127c5.096-2.68,11.182-2.68,16.279,0l7.579,3.984  c4.919,2.586,11.005,0.624,13.474-4.378l1.204-2.439C421.415,137.858,396.142,124.78,382.368,100.923z"/>
<g>
</g>
<g>
</g>
<g>
</g>
<g>
</g>
<g>
</g>
<g>
</g>
<g>
</g>
<g>
</g>
<g>
</g>
<g>
</g>
<g>
</g>
<g>
</g>
<g>
</g>
<g>
</g>
<g>
</g>
</svg>