<?xml version="1.0" encoding="UTF-8"?>
<svg width="468px" height="349px" viewBox="0 0 468 349" version="1.1" xmlns="http://www.w3.org/2000/svg" xmlns:xlink="http://www.w3.org/1999/xlink">
    <!-- Generator: Sketch 43.1 (39012) - http://www.bohemiancoding.com/sketch -->
    <title>Faster Setup1 Copy</title>
    <desc>Created with Sketch.</desc>
    <defs>
        <path d="M60.0326326,117 C60.735398,102.516516 72.7008141,90.9895795 87.3584906,90.9895795 C88.5070453,90.9895795 89.6390693,91.0603557 90.7504392,91.1977846 C96.4289024,75.3423192 111.587879,63.9990135 129.396226,63.9990135 C145.085453,63.9990135 158.718322,72.8033263 165.623646,85.7407645 C169.475823,86.1421444 173.169561,87.0764257 176.629839,88.4685877 C180.049762,83.177991 185.245991,79.1430476 191.37466,77.207622 C200.622518,52.3322629 202.704379,2.59805063 202.704379,2.59805063 L223.49638,0.564918557 C223.49638,23.7328887 228.544728,58.1034277 238.639318,77.5040023 C244.764169,78.4972337 250.20714,81.5239781 254.253015,85.8690197 C256.690849,84.1557543 259.661928,83.1499569 262.867925,83.1499569 C270.64817,83.1499569 277.044932,89.0733583 277.794506,96.6564585 C279.817134,96.9366708 281.745532,97.5117057 283.53491,98.3367742 C284.339902,86.6418526 294.081788,77.4046739 305.981132,77.4046739 C316.848878,77.4046739 325.917026,85.1096661 328.020904,95.3549773 C337.626991,98.7582927 344.983977,106.91641 347.262532,117 L60.0326326,117 Z" id="path-1"></path>
        <path d="M25.0701559,59.5226452 C38.6629344,51.0854456 58.3745762,48.647378 58.3745762,48.647378 L29.3609504,91.9079912 C29.3609504,91.9079912 2.49405771,85.4931733 2.49405771,83.3330815 C2.49405771,81.1729898 11.4773773,67.9598448 25.0701559,59.5226452 Z" id="path-2"></path>
        <path d="M67.4754916,104.664155 C81.0680747,96.2269551 100.779433,93.7888875 100.779433,93.7888875 L71.7662244,137.049501 C71.7662244,137.049501 44.8997181,130.634683 44.8997181,128.474591 C44.8997181,126.314499 53.8829085,113.101354 67.4754916,104.664155 Z" id="path-3"></path>
        <path d="M52.4953221,113.867806 C54.5231187,106.432552 58.8678815,106.313242 61.1229206,113.95232 C63.0351765,120.4302 60.8299123,142.101722 60.8299123,142.101722 C60.8299123,142.101722 53.2521858,145.101397 52.4953221,143.962146 C51.7384585,142.822895 55.3306628,127.121168 52.4953221,113.867806 Z" id="path-4"></path>
        <path d="M14.1934354,74.1979263 C16.2212319,66.7627634 20.5659947,66.6434541 22.8210338,74.2824387 C24.7332897,80.7602394 22.5280255,102.431497 22.5280255,102.431497 C22.5280255,102.431497 14.950299,105.431135 14.1934354,104.291898 C13.4365717,103.152661 17.028776,87.4511263 14.1934354,74.1979263 Z" id="path-5"></path>
        <rect id="path-6" x="25.990566" y="96.1226415" width="13.6792453" height="25.990566" rx="1"></rect>
        <path d="M0.560659495,47.4008657 C0.560659495,47.4008657 50.4517895,26.2469838 99.3661733,45.6368657 C104.865176,47.816695 127.141866,57.8844287 127.650049,64.103218 C128.158233,70.3220074 106.487964,78.5254969 100.248173,81.3189219 C50.8256059,103.444382 0.641181576,79.3177188 0.641181576,79.3177188 L0.560659495,47.4008657 Z" id="path-7"></path>
        <ellipse id="path-9" cx="86.1792453" cy="57.8207547" rx="10.9433962" ry="10.9433962"></ellipse>
        <circle id="path-10" cx="65.6603774" cy="78.3396226" r="8.20754717"></circle>
    </defs>
    <g id="Page-1" stroke="none" stroke-width="1" fill="none" fill-rule="evenodd">
        <g id="Cloud-Ecommerce-Copy" transform="translate(-210.000000, -4098.000000)">
            <g id="Reasons-to-Choose-A-SaaS-Platform" transform="translate(173.000000, 2980.000000)">
                <g id="Faster-Setup" transform="translate(0.000000, 1041.000000)">
                    <g id="Faster-Setup1-Copy" transform="translate(11.000000, 41.000000)">
                        <path d="M229.540896,393.818188 C319.354874,392.426774 457.284231,329.305427 489.903139,237.86386 C522.522048,146.422293 488.493155,65.3196776 401.500623,62.848344 C275.919318,59.2807584 268.31886,70.560521 207.741517,59.087271 C147.164173,47.614021 11.7600403,98.9190959 41.5799853,241.413477 C58.1351316,320.522119 139.726919,395.209603 229.540896,393.818188 Z" id="Oval-2" fill="#DEEAF9" opacity="0.300000012" transform="translate(269.716005, 225.686505) scale(-1, 1) rotate(16.000000) translate(-269.716005, -225.686505) "></path>
                        <g id="Group-83" opacity="0.699999988" transform="translate(150.000000, 57.000000)" stroke-width="2" stroke="#AAB2D5" fill="#FFFFFF">
                            <polygon id="Star" transform="translate(65.000000, 44.000000) rotate(45.000000) translate(-65.000000, -44.000000) " points="65 47.0000001 57.9289322 51.0710678 61.9999999 44 57.9289322 36.9289322 65 40.9999999 72.0710678 36.9289322 68.0000001 44 72.0710678 51.0710678"></polygon>
                            <polygon id="Star-Copy-6" transform="translate(15.000000, 94.000000) rotate(45.000000) translate(-15.000000, -94.000000) " points="15 97.0000001 7.92893219 101.071068 11.9999999 94 7.92893219 86.9289322 15 90.9999999 22.0710678 86.9289322 18.0000001 94 22.0710678 101.071068"></polygon>
                            <polygon id="Star-Copy" transform="translate(215.000000, 84.000000) rotate(45.000000) translate(-215.000000, -84.000000) " points="215 87.0000001 207.928932 91.0710678 212 84 207.928932 76.9289322 215 80.9999999 222.071068 76.9289322 218 84 222.071068 91.0710678"></polygon>
                            <polygon id="Star-Copy-10" transform="translate(185.000000, 15.000000) rotate(45.000000) translate(-185.000000, -15.000000) " points="185 18.0000001 177.928932 22.0710678 182 15 177.928932 7.92893219 185 11.9999999 192.071068 7.92893219 188 15 192.071068 22.0710678"></polygon>
                            <polygon id="Star-Copy-9" transform="translate(75.242641, 95.242641) rotate(45.000000) translate(-75.242641, -95.242641) " points="75.2426407 96.1426407 73.1213203 97.363961 74.3426407 95.2426407 73.1213203 93.1213203 75.2426407 94.3426407 77.363961 93.1213203 76.1426407 95.2426407 77.363961 97.363961"></polygon>
                            <polygon id="Star-Copy-7" transform="translate(7.000000, 57.000000) rotate(45.000000) translate(-7.000000, -57.000000) " points="7 57.9 4.87867966 59.1213203 6.09999996 57 4.87867966 54.8786797 7 56.1 9.12132034 54.8786797 7.90000004 57 9.12132034 59.1213203"></polygon>
                            <polygon id="Star-Copy-3" transform="translate(167.000000, 67.000000) rotate(45.000000) translate(-167.000000, -67.000000) " points="167 67.9 164.87868 69.1213203 166.1 67 164.87868 64.8786797 167 66.1 169.12132 64.8786797 167.9 67 169.12132 69.1213203"></polygon>
                            <polygon id="Star-Copy-4" transform="translate(197.000000, 127.000000) rotate(45.000000) translate(-197.000000, -127.000000) " points="197 127.9 194.87868 129.12132 196.1 127 194.87868 124.87868 197 126.1 199.12132 124.87868 197.9 127 199.12132 129.12132"></polygon>
                            <polygon id="Star-Copy-8" transform="translate(257.000000, 47.000000) rotate(45.000000) translate(-257.000000, -47.000000) " points="257 47.9 254.87868 49.1213203 256.1 47 254.87868 44.8786797 257 46.1 259.12132 44.8786797 257.9 47 259.12132 49.1213203"></polygon>
                            <polygon id="Star-Copy-11" transform="translate(217.000000, 37.000000) rotate(45.000000) translate(-217.000000, -37.000000) " points="217 37.9 214.87868 39.1213203 216.1 37 214.87868 34.8786797 217 36.1 219.12132 34.8786797 217.9 37 219.12132 39.1213203"></polygon>
                            <polygon id="Star-Copy-5" transform="translate(39.000000, 121.000000) rotate(45.000000) translate(-39.000000, -121.000000) " points="39 121.9 36.8786797 123.12132 38.1 121 36.8786797 118.87868 39 120.1 41.1213203 118.87868 39.9 121 41.1213203 123.12132"></polygon>
                        </g>
                        <g id="Group-12" transform="translate(29.000000, 52.000000)">
                            <g id="Group-11" transform="translate(30.000000, 169.962264)">
                                <g id="Combined-Shape-Copy-8">
                                    <use fill="#FFFFFF" fill-rule="evenodd" xlink:href="#path-1"></use>
                                    <path stroke="#4A4A4A" stroke-width="2" d="M61.1030597,116 L61.1030597,116 L61.1030597,116 Z M61.1030597,116 L61.1030607,115.999989 C62.2933494,102.498986 73.6381377,91.9895795 87.3584906,91.9895795 C88.4581542,91.9895795 89.5492344,92.0568635 90.6277168,92.1902256 L91.4220276,92.2884479 L91.6918837,91.5349527 C97.3457361,75.7482058 112.351615,64.9990135 129.396226,64.9990135 C144.343388,64.9990135 157.828911,73.2606912 164.741445,86.2116371 L164.991605,86.6803223 L165.520012,86.73538 C169.230724,87.1220199 172.836365,88.0202714 176.256588,89.3963182 L177.021853,89.7042048 L177.469655,89.0114581 C180.795327,83.8666681 185.824443,80.0090527 191.6758,78.1612022 L192.141721,78.0140649 L192.311982,77.556088 C195.165601,69.8802776 197.512205,59.4597549 199.409702,46.9661781 C200.882802,37.2669269 202.003213,26.8803081 202.818839,16.4944581 C203.104262,12.8599882 203.33123,9.48492554 203.505653,6.45551397 C203.56673,5.39473368 203.616881,4.45275464 203.656846,3.64036258 C203.659063,3.59530315 203.661206,3.5515312 203.663274,3.50905521 L222.499781,1.66713988 C222.661926,28.0560578 228.610338,60.3959972 237.752219,77.9655814 L237.983864,78.4107743 L238.479245,78.4911074 C244.274766,79.4309333 249.548467,82.2840319 253.521163,86.5504826 L254.115021,87.1882527 L254.828004,86.6871809 C257.165154,85.0446741 259.948127,84.1499569 262.867925,84.1499569 C270.080814,84.1499569 276.0951,89.6301949 276.799356,96.754827 L276.876858,97.5388795 L277.657278,97.6469979 C279.55673,97.9101456 281.392055,98.4499042 283.116186,99.2448877 L284.432976,99.8520493 L284.53255,98.4054443 C285.305416,87.1772301 294.665003,78.4046739 305.981132,78.4046739 C316.234604,78.4046739 325.00453,85.637399 327.041344,95.5561302 L327.154889,96.1090643 L327.686956,96.2975687 C336.630729,99.4662347 343.494853,106.867379 345.983138,116 L61.1030598,116 L61.1030597,116 Z"></path>
                                </g>
                                <path d="M32.5,116 L373.963029,116" id="Line" stroke="#3B3D52" stroke-width="2" stroke-linecap="round" stroke-linejoin="round"></path>
                            </g>
                            <g id="Group-8-Copy-2" transform="translate(245.254717, 115.500000) rotate(-45.000000) translate(-245.254717, -115.500000) translate(172.754717, 43.000000)">
                                <g id="Rectangle-6">
                                    <use fill="#4BC9F4" fill-rule="evenodd" xlink:href="#path-2"></use>
                                    <path stroke="#3B3D52" stroke-width="2" d="M56.2829638,49.9707344 L28.9184778,90.7724065 C28.7705831,90.736472 28.6122731,90.6978885 28.4440229,90.6567503 C27.5279747,90.4327713 26.5070438,90.1795397 25.4075074,89.9022775 C22.2665335,89.1102404 19.125815,88.2845994 16.1962074,87.4673478 C14.7733102,87.0704124 13.4333759,86.6844871 12.1905538,86.312421 C9.43516638,85.4875352 7.21441322,84.74808 5.64394478,84.1196085 C4.80777225,83.7849883 4.17053312,83.4871511 3.75751498,83.2385972 C3.67371745,83.188168 3.6021969,83.1415108 3.54379418,83.1000947 C3.69630529,82.6239675 4.19378571,81.6313703 4.95623759,80.4208397 C6.06364381,78.6626315 7.61760406,76.5752759 9.44584686,74.4304931 C13.9922504,69.0969301 19.5791428,64.107963 25.5975324,60.3722769 C28.5693996,58.5276035 31.9913695,56.8804637 35.7761368,55.4224346 C40.7433279,53.5088932 46.0743279,52.0129275 51.4065576,50.8885212 C53.1630714,50.5181254 54.8010493,50.2138776 56.2829638,49.9707344 Z"></path>
                                </g>
                                <g id="Rectangle-6-Copy" transform="translate(72.839576, 115.419194) scale(1, -1) rotate(90.000000) translate(-72.839576, -115.419194) ">
                                    <use fill="#4BC9F4" fill-rule="evenodd" xlink:href="#path-3"></use>
                                    <path stroke="#3B3D52" stroke-width="2" d="M98.6878369,95.1122465 L71.3237483,135.913913 C71.1758605,135.877979 71.0175583,135.839397 70.8493167,135.798261 C69.9332818,135.574282 68.9123656,135.32105 67.8128451,135.043788 C64.6719166,134.251751 61.5312435,133.42611 58.6016782,132.608858 C57.1788016,132.211923 55.8388867,131.825998 54.5960827,131.453932 C51.8407355,130.629046 49.6200149,129.889591 48.0495698,129.26112 C47.2134103,128.9265 46.5761812,128.628663 46.16317,128.38011 C46.0793736,128.329681 46.0078541,128.283023 45.9494523,128.241607 C46.1019595,127.76548 46.5994339,126.77288 47.3618782,125.562344 C48.4692685,123.804135 50.0232064,121.71678 51.8514228,119.571997 C56.3977605,114.238435 61.9845718,109.249468 68.0028736,105.513783 C70.974697,103.66911 74.3966165,102.021971 78.1813282,100.563942 C83.1484466,98.6504014 88.4793687,97.1544361 93.8115204,96.03003 C95.5680013,95.6596358 97.205949,95.3553891 98.6878369,95.1122465 Z"></path>
                                </g>
                                <g id="Rectangle-10" transform="translate(57.145464, 126.238770) rotate(-18.000000) translate(-57.145464, -126.238770) ">
                                    <use fill="#495060" fill-rule="evenodd" xlink:href="#path-4"></use>
                                    <path stroke="#3B3D52" stroke-width="2" d="M53.524196,113.900496 C55.3068562,107.619863 58.2316998,107.690214 60.163836,114.235439 C60.8297358,116.491214 61.0262207,121.029848 60.8322164,127.091316 C60.7451138,129.812747 60.5835485,132.719627 60.3690499,135.684818 C60.2521179,137.301266 60.1268303,138.832928 60.0015693,140.230765 C59.9632883,140.657958 59.9274091,141.045623 59.8946308,141.389675 C59.8073895,141.4225 59.7130459,141.457761 59.6121636,141.495182 C58.9536682,141.739439 58.2619745,141.983708 57.5712842,142.211256 C57.1490694,142.350355 56.7399469,142.47891 56.3484961,142.59475 C55.3432492,142.892226 54.4920037,143.094728 53.8585755,143.17857 C53.6769124,143.202615 53.5186404,143.215971 53.3879611,143.219502 C53.3879459,143.210765 53.3879508,143.201902 53.3879762,143.192916 C53.3889276,142.855416 53.4178454,142.378433 53.4759594,141.721605 C53.5409476,140.987081 53.9146553,137.455877 53.9907848,136.683913 C54.6310754,130.191271 54.8172361,124.882983 54.3483478,119.603437 C54.1711534,117.608279 53.8993064,115.705885 53.524196,113.900496 L53.524196,113.900496 Z"></path>
                                </g>
                                <g id="Rectangle-10-Copy" transform="translate(18.843577, 86.568738) scale(-1, 1) rotate(-109.000000) translate(-18.843577, -86.568738) ">
                                    <use fill="#495060" fill-rule="evenodd" xlink:href="#path-5"></use>
                                    <path stroke="#3B3D52" stroke-width="2" d="M15.2223099,74.2306165 C17.0049683,67.9500735 19.9298167,68.0204256 21.8619502,74.5655616 C22.527849,76.8213057 22.7243338,81.3598821 22.5303296,87.4212735 C22.443227,90.1426704 22.2816618,93.0495147 22.0671632,96.0146697 C21.9502312,97.6310977 21.8249436,99.1627405 21.6996826,100.56056 C21.6614019,100.987744 21.625523,101.375401 21.592745,101.719446 C21.5055045,101.75227 21.4111618,101.787532 21.3102805,101.824951 C20.651785,102.069206 19.9600913,102.313471 19.2694009,102.541017 C18.847186,102.680114 18.4380634,102.808667 18.0466125,102.924505 C17.0413652,103.221978 16.1901191,103.424478 15.5566903,103.508319 C15.3750267,103.532364 15.2167541,103.54572 15.0860743,103.549251 C15.0860592,103.540517 15.086064,103.531659 15.0860894,103.522677 C15.0870408,103.185183 15.1159585,102.708206 15.1740725,102.051386 C15.2390607,101.316871 15.6127684,97.7857113 15.6888979,97.0137567 C16.3291887,90.5211922 16.5153494,85.2129677 16.0464609,79.933485 C15.8692666,77.9383526 15.5974199,76.0359824 15.2223099,74.2306165 L15.2223099,74.2306165 Z"></path>
                                </g>
                                <g id="Rectangle-7" transform="translate(32.830189, 109.117925) rotate(-45.000000) translate(-32.830189, -109.117925) ">
                                    <use fill="#FFC345" fill-rule="evenodd" xlink:href="#path-6"></use>
                                    <rect stroke="#3B3D52" stroke-width="2" x="26.990566" y="97.1226415" width="11.6792453" height="23.990566" rx="1"></rect>
                                </g>
                                <g id="Rectangle-9" transform="translate(16.047170, 0.000000)">
                                    <mask id="mask-8" fill="white">
                                        <use xlink:href="#path-7"></use>
                                    </mask>
                                    <g id="Mask" transform="translate(64.109750, 64.056502) rotate(-45.000000) translate(-64.109750, -64.056502) ">
                                        <use fill="#FFFFFF" fill-rule="evenodd" xlink:href="#path-7"></use>
                                        <path stroke="#3B3D52" stroke-width="2" d="M0.170298134,46.480204 L-0.441012479,46.7394002 L-0.439337322,47.4033886 L-0.358815242,79.3202417 L-0.357233295,79.9472839 L0.207893906,80.2189745 C0.258858209,80.2434761 0.354949786,80.2887215 0.495170076,80.3533257 C0.725767325,80.4595697 0.998490151,80.5823994 1.31234036,80.7204298 C2.20524515,81.1131267 3.25064065,81.5499826 4.44054612,82.0199126 C7.83381802,83.3600192 11.7089764,84.6991752 16.0022617,85.948606 C27.3444875,89.2494175 39.5074689,91.3372534 52.0723568,91.6255495 C68.1091103,91.9935062 83.7003499,89.3827559 98.4177824,83.2027395 C99.1670027,82.8881334 99.9133486,82.5644514 100.656776,82.2316344 C101.525565,81.8426955 106.632044,79.6744842 106.105184,79.8999342 C108.94802,78.6834473 111.286951,77.6416908 113.553554,76.562009 C118.297443,74.3022871 122.018004,72.1980501 124.607114,70.1859849 C127.360111,68.0465589 128.811015,66.032213 128.646727,64.0217721 C128.195251,58.4969299 113.263486,50.0701201 99.7346808,44.7072409 C98.7914064,44.3333227 97.8433271,43.9725826 96.8905352,43.6249105 C70.5327249,34.0069914 42.4227643,34.6338238 15.8565102,41.4588066 C11.5936706,42.553948 7.74493495,43.7277385 4.3740612,44.9023309 C3.19210449,45.3141877 2.15363093,45.6970366 1.26661907,46.0411556 C0.954911222,46.1620837 0.68407086,46.2696805 0.455095788,46.3627313 C0.315963903,46.4192717 0.220698654,46.4588342 0.170298134,46.480204 L0.170298134,46.480204 Z"></path>
                                    </g>
                                    <path d="M110.435923,18.257366 C114.139296,21.9444027 102.622019,47.8592184 102.622019,47.8592184 C102.622019,47.8592184 100.694085,40.1250478 94.778436,33.7850621 C88.8627866,27.4450763 80.670705,24.3333109 80.670705,24.3333109 C80.670705,24.3333109 106.73255,14.5703294 110.435923,18.257366 Z" fill="#FFC345" mask="url(#mask-8)"></path>
                                </g>
                                <g id="Oval-3">
                                    <use fill="#DCF1FF" fill-rule="evenodd" xlink:href="#path-9"></use>
                                    <ellipse stroke="#3B3D52" stroke-width="2" cx="86.1792453" cy="57.8207547" rx="9.94339623" ry="9.94339623"></ellipse>
                                </g>
                                <g id="Oval-3-Copy">
                                    <use fill="#DCF1FF" fill-rule="evenodd" xlink:href="#path-10"></use>
                                    <circle stroke="#3B3D52" stroke-width="2" cx="65.6603774" cy="78.3396226" r="7.20754717"></circle>
                                </g>
                                <path d="M96.4386792,24.3066038 C96.4386792,24.3066038 105.439773,27.8359995 111.114479,33.5107053 C116.789185,39.1854112 119.693396,47.5613208 119.693396,47.5613208" id="Line" stroke="#3B3D52" stroke-width="2" stroke-linecap="square"></path>
                            </g>
                        </g>
                    </g>
                </g>
            </g>
        </g>
    </g>
</svg>