<svg xmlns="http://www.w3.org/2000/svg" xmlns:xlink="http://www.w3.org/1999/xlink" version="1.1" id="Layer_1" x="0px" y="0px" viewBox="0 0 506 506" style="enable-background:new 0 0 506 506;" xml:space="preserve">
<circle style="fill: #4C8DFF;" cx="253" cy="253" r="253"></circle>
<path style="fill: #D4E7FF;" d="M377.9,141.5c0-28.1-23-50.9-51.3-50.9c-11.4,0-21.8,3.7-30.3,9.9c-9.2-8.6-21.5-13.9-35.2-13.9  c-28.4,0-51.3,22.8-51.3,50.9c0,3.5,0.4,6.9,1,10.2c-15.9,8.6-26.7,25.4-26.7,44.6c0,28.1,23,50.9,51.3,50.9c28.4,0,114.1,0,142.5,0  c28.4,0,51.3-22.8,51.3-50.9C429.3,164.2,406.3,141.5,377.9,141.5z"></path>
<path style="fill: #B4D4FB;" d="M273.7,402.9H116.1c-1.7,0-3.1-1.4-3.1-3.1V161.3c0-1.7,1.4-3.1,3.1-3.1h157.6c1.7,0,3.1,1.4,3.1,3.1  v238.5C276.8,401.5,275.4,402.9,273.7,402.9z"></path>
<rect x="131.1" y="179" style="fill: #D4E7FF;" width="127.5" height="180.5"></rect>
<ellipse style="fill: #4C8DFF;" cx="194.9" cy="381.1" rx="13.7" ry="13.5"></ellipse>
<polygon style="fill: rgba(255,255,255,0.4);" points="370,345.8 306.7,345.8 306.7,326 350.2,326 350.2,277.6 370,277.6 "></polygon>
</svg>